<?xml version="1.0" encoding="UTF-8" standalone="no"?><!DOCTYPE svg PUBLIC "-//W3C//DTD SVG 1.1//EN" "http://www.w3.org/Graphics/SVG/1.1/DTD/svg11.dtd"><svg width="100%" height="100%" viewBox="0 0 1200 1200" version="1.1" xmlns="http://www.w3.org/2000/svg" xmlns:xlink="http://www.w3.org/1999/xlink" xml:space="preserve" xmlns:serif="http://www.serif.com/" style="fill-rule:evenodd;clip-rule:evenodd;stroke-linejoin:round;stroke-miterlimit:2;"><path d="M1200,221.16l-0,757.68c-0,122.062 -99.098,221.16 -221.16,221.16l-757.68,0c-122.062,0 -221.16,-99.098 -221.16,-221.16l0,-757.68c0,-122.062 99.098,-221.16 221.16,-221.16l757.68,0c122.062,0 221.16,99.098 221.16,221.16Z"/><path d="M1200,221.16l-0,757.68c-0,122.062 -99.098,221.16 -221.16,221.16l-757.68,0c-122.062,0 -221.16,-99.098 -221.16,-221.16l0,-757.68c0,-122.062 99.098,-221.16 221.16,-221.16l757.68,0c122.062,0 221.16,99.098 221.16,221.16Zm-9.5,-0c-0,-116.818 -94.842,-211.66 -211.66,-211.66l-757.68,0c-116.818,0 -211.66,94.842 -211.66,211.66l0,757.68c0,116.818 94.842,211.66 211.66,211.66l757.68,0c116.818,0 211.66,-94.842 211.66,-211.66l-0,-757.68Z"/><rect id="Artboard1" x="0" y="0" width="1200" height="1200" style="fill:none;"/><g id="Logo"><g id="Aethor-Icon" serif:id="Aethor Icon"><path d="M326.957,922.09l546.086,-0l-79.625,-172.815c-101.027,-84.545 -260.614,-76.352 -285.762,74.218c-16.155,96.724 -180.699,98.597 -180.699,98.597Z" style="fill:url(#_Linear1);"/><path d="M600,240.493l331.697,719.014l-663.394,-0l331.697,-719.014Zm0,88.992l-273.043,592.605l546.086,-0l-273.043,-592.605Z" style="fill:#fff;"/><path d="M600.908,240.075l331.697,719.013l-0.908,1.419l-663.394,-0l-0.908,-1.419l331.697,-719.013l1.816,-0Zm-0.908,0.418l-331.697,719.014l663.394,-0l-331.697,-719.014Zm0,88.992l273.043,592.605l-546.086,-0l273.043,-592.605Zm-0,2.39l-271.481,589.215l542.962,-0l-271.481,-589.215Z" style="fill:#fff;"/></g></g><defs><linearGradient id="_Linear1" x1="0" y1="0" x2="1" y2="0" gradientUnits="userSpaceOnUse" gradientTransform="matrix(-231.418,-521.174,521.174,-231.418,737.187,959.507)"><stop offset="0" style="stop-color:#b25ce7;stop-opacity:1"/><stop offset="0.51" style="stop-color:#6d6fe9;stop-opacity:0.89"/><stop offset="1" style="stop-color:#5576ea;stop-opacity:0.85"/></linearGradient></defs></svg>