<?xml version="1.0" encoding="UTF-8" standalone="no"?><!DOCTYPE svg PUBLIC "-//W3C//DTD SVG 1.1//EN" "http://www.w3.org/Graphics/SVG/1.1/DTD/svg11.dtd"><svg width="100%" height="100%" viewBox="0 0 4267 4267" version="1.1" xmlns="http://www.w3.org/2000/svg" xmlns:xlink="http://www.w3.org/1999/xlink" xml:space="preserve" xmlns:serif="http://www.serif.com/" style="fill-rule:evenodd;clip-rule:evenodd;stroke-linejoin:round;stroke-miterlimit:2;"><g id="Backgrounds"><path id="Light-App-Icon-Background" serif:id="Light App Icon Background" d="M4266.67,750l-0,2766.67c-0,413.936 -336.064,750 -750,750l-2766.67,-0c-413.936,-0 -750,-336.064 -750,-750l-0,-2766.67c-0,-413.936 336.064,-750 750,-750l2766.67,0c413.936,0 750,336.064 750,750Z" style="fill:#fafafa;"/></g><path id="RBBT" d="M2346.44,2325.28c-138.279,-25.402 -284.469,-25.402 -422.747,-0c-33.946,-180.234 -130.216,-871.199 -508.663,-1508.44c-22.523,-37.925 -256.838,-432.469 -441.124,-330.772c-72.709,40.124 -448.148,735.062 -91.945,1626.02c94.396,236.112 239.167,441.708 264.3,477.401c79.45,112.83 109.255,108.609 89.488,170.412c-14.156,44.265 -51.402,61.84 -116.189,271.55c-25.974,84.076 -19.024,99.898 -103.609,125.202c-29.265,8.754 -266.601,63.256 -348.273,200.842c-184.845,311.388 1251.12,584.994 2386.16,354.557c705.62,-143.255 560.973,-355.585 523.778,-392.435c-150.871,-149.473 -369.042,-145.546 -405.942,-217.596c-5.811,-11.347 -41.188,-147.183 -74.441,-219.492c-65.238,-141.857 -73.468,-142.265 -65.499,-163.333c16.925,-44.742 387.704,-447.626 485.295,-1075.39c104.047,-669.296 -176.51,-1114.98 -194.016,-1134.02c-126.617,-137.741 -333.872,114.605 -353.123,138.044c-88.034,107.187 -451.581,640.375 -623.449,1677.44m859.904,-1638.14c45.449,110.336 219.721,480.602 100.939,1010.28c-105.986,472.623 -402.495,843.554 -422.802,872.863c-26.926,-17.547 -144.986,-132.765 -216.989,-32.66c-96.734,134.489 324.689,235.021 327.313,806.093c0.184,39.915 12.697,137.112 -81.558,167.294c-31.672,10.142 -252.215,92.119 -682.102,92.119c8.381,-67.463 123.413,-77.786 95.263,-177.439c-44.399,-157.18 -373.241,-138.06 -398.25,4.502c-12.524,71.391 103.934,117.463 110.83,172.937c-487.47,0 -716.872,-98.239 -739.911,-126.391c-25.085,-30.652 -23.973,-126.636 -23.843,-137.826c6.63,-571.994 423.117,-667.964 327.178,-801.073c-72.078,-100.003 -191.776,16.162 -216.76,32.444c-49.565,-70.018 -344.652,-442.696 -435.696,-931.965c-95.447,-512.931 77.951,-867.493 113.832,-951.179c231.06,166.298 558.487,920.957 664.274,1628.54c9.921,66.363 -8.624,229.474 162.144,208.307c227.349,-28.181 228.088,-37.933 485.108,-0.384c170.398,24.894 154.485,-130.917 164.089,-193.511c117.646,-766.739 446.673,-1484.64 666.941,-1642.95m-1517.92,2298.21c-152.128,30.414 -114.812,356.495 28.573,332.685c152.032,-25.246 113.887,-361.166 -28.573,-332.685m864.665,-0.575c-150.812,25.752 -117.217,353.168 23.919,333.799c155.449,-21.334 118.915,-358.188 -23.919,-333.799Z" style="fill:#020202;fill-rule:nonzero;"/></svg>