<?xml version="1.0" encoding="UTF-8" standalone="no"?><!DOCTYPE svg PUBLIC "-//W3C//DTD SVG 1.1//EN" "http://www.w3.org/Graphics/SVG/1.1/DTD/svg11.dtd"><svg width="100%" height="100%" viewBox="0 0 2163 2343" version="1.1" xmlns="http://www.w3.org/2000/svg" xmlns:xlink="http://www.w3.org/1999/xlink" xml:space="preserve" xmlns:serif="http://www.serif.com/" style="fill-rule:evenodd;clip-rule:evenodd;stroke-linejoin:round;stroke-miterlimit:2;"><g id="Aethor-Icon" serif:id="Aethor Icon"><path d="M196.017,2215.26l1770.12,0l-258.1,-560.173c-327.479,-274.049 -844.775,-247.494 -926.292,240.577c-52.365,313.527 -585.728,319.596 -585.728,319.596Z" style="fill:url(#_Linear1);"/><path d="M1081.08,5.893l1075.18,2330.66l-2150.37,0l1075.18,-2330.66Zm-0,288.464l-885.06,1920.91l1770.12,0l-885.06,-1920.91Z" style="fill:#fff;"/><path d="M1084.86,4.147l1075.18,2330.66l-3.784,5.912l-2150.37,-0l-3.784,-5.912l1075.18,-2330.66l7.567,0Zm-3.783,1.746l-1075.18,2330.66l2150.37,0l-1075.18,-2330.66Zm-0,288.464l885.06,1920.91l-1770.12,0l885.06,-1920.91Zm-0,9.957l-878.553,1906.79c116.463,-0 1757.11,-0 1757.11,-0l-878.553,-1906.79Z" style="fill:#fff;"/></g><defs><linearGradient id="_Linear1" x1="0" y1="0" x2="1" y2="0" gradientUnits="userSpaceOnUse" gradientTransform="matrix(-750.133,-1689.37,1689.37,-750.133,1525.76,2336.55)"><stop offset="0" style="stop-color:#b25ce7;stop-opacity:1"/><stop offset="0.51" style="stop-color:#6d6fe9;stop-opacity:0.89"/><stop offset="1" style="stop-color:#5576ea;stop-opacity:0.85"/></linearGradient></defs></svg>