<?xml version="1.0" encoding="UTF-8" standalone="no"?><!DOCTYPE svg PUBLIC "-//W3C//DTD SVG 1.1//EN" "http://www.w3.org/Graphics/SVG/1.1/DTD/svg11.dtd"><svg width="100%" height="100%" viewBox="0 0 17554 2380" version="1.1" xmlns="http://www.w3.org/2000/svg" xmlns:xlink="http://www.w3.org/1999/xlink" xml:space="preserve" xmlns:serif="http://www.serif.com/" style="fill-rule:evenodd;clip-rule:evenodd;stroke-linejoin:round;stroke-miterlimit:2;"><g id="Logo"><g id="Aethor-Icon" serif:id="Aethor Icon"><path d="M190.124,2209.37l1770.12,-0l-258.101,-560.173c-327.479,-274.05 -844.775,-247.494 -926.291,240.576c-52.365,313.528 -585.729,319.597 -585.729,319.597Z" style="fill:url(#_Linear1);"/><path d="M1075.18,0l1075.18,2330.66l-2150.37,-0l1075.18,-2330.66Zm0,288.464l-885.06,1920.91l1770.12,-0l-885.061,-1920.91Z"/></g><g id="Letters"><path d="M2386.39,49.17l1606.22,0l0,121.286l-1484.93,0l-0,924.396l1291.53,0l0,121.286l-1291.53,0l-0,993.235l1484.93,-0l0,121.286l-1606.22,-0l-0,-2281.49Z" style="fill-rule:nonzero;"/><path d="M6192.14,49.17l0,121.286l-862.114,0l-0,2160.2l-118.008,-0l-0,-2160.2l-862.115,0l0,-121.286l1842.24,0Z" style="fill-rule:nonzero;"/><path d="M6490.44,2330.66l0,-2281.49l121.286,0l0,1078.46l1514.44,0l-0,-1078.46l121.286,0l-0,2281.49l-121.286,-0l-0,-1081.74l-1514.44,0l0,1081.74l-121.286,-0Z" style="fill-rule:nonzero;"/><path d="M9466.87,0c170.456,0 327.8,42.068 472.032,126.203c144.232,84.135 258.416,198.319 342.551,342.551c84.136,144.232 126.203,301.576 126.203,472.032l0,498.256c0,170.457 -42.067,327.801 -126.203,472.033c-84.135,144.232 -198.319,258.415 -342.551,342.551c-144.232,84.135 -301.576,126.203 -472.032,126.203c-170.456,-0 -327.8,-42.068 -472.032,-126.203c-144.232,-84.136 -258.416,-198.319 -342.551,-342.551c-84.135,-144.232 -126.203,-301.576 -126.203,-472.033l-0,-498.256c-0,-170.456 42.068,-327.8 126.203,-472.032c84.135,-144.232 198.319,-258.416 342.551,-342.551c144.232,-84.135 301.576,-126.203 472.032,-126.203Zm-819.5,1439.04c-0,148.603 36.604,285.733 109.813,411.39c73.209,125.656 172.641,225.089 298.298,298.298c125.657,73.208 262.786,109.813 411.389,109.813c148.603,-0 285.733,-36.605 411.389,-109.813c125.657,-73.209 225.09,-172.642 298.298,-298.298c73.209,-125.657 109.813,-262.787 109.813,-411.39l0,-498.256c0,-148.602 -36.604,-285.732 -109.813,-411.389c-73.208,-125.657 -172.641,-225.089 -298.298,-298.298c-125.656,-73.209 -262.786,-109.813 -411.389,-109.813c-148.603,0 -285.732,36.604 -411.389,109.813c-125.657,73.209 -225.089,172.641 -298.298,298.298c-73.209,125.657 -109.813,262.787 -109.813,411.389l-0,498.256Z" style="fill-rule:nonzero;"/><path d="M12059.8,124.564c131.12,61.189 234.377,151.881 309.771,272.074c75.394,120.194 113.091,253.499 113.091,399.916c0,170.456 -51.902,322.883 -155.705,457.281c-103.803,134.398 -236.562,223.451 -398.277,267.158l580.206,809.666l-144.232,-0l-560.538,-786.72l-104.896,3.278l-822.778,-0l-0,783.442l-121.286,-0l-0,-2281.49l868.67,0c96.155,0 178.651,6.01 247.489,18.029c68.838,12.019 131.666,31.141 188.485,57.365Zm-327.8,1301.37c113.637,0 218.533,-28.409 314.688,-85.228c96.155,-56.818 172.641,-133.305 229.46,-229.46c56.819,-96.154 85.228,-201.05 85.228,-314.688c0,-126.749 -33.326,-241.479 -99.979,-344.19c-66.653,-102.711 -158.983,-179.197 -276.991,-229.46c-85.228,-34.965 -205.421,-52.448 -360.58,-52.448l-747.384,0l-0,1255.47l855.558,0Z" style="fill-rule:nonzero;"/><path d="M12774.4,2081.53c0,-80.858 28.956,-150.242 86.867,-208.153c57.912,-57.912 128.389,-86.867 211.431,-86.867c83.043,-0 153.52,28.955 211.431,86.867c57.912,57.911 86.867,127.295 86.867,208.153c0,80.857 -28.955,150.788 -86.867,209.792c-57.911,59.004 -128.388,88.506 -211.431,88.506c-80.857,-0 -150.788,-29.502 -209.792,-88.506c-59.004,-59.004 -88.506,-128.935 -88.506,-209.792Z" style="fill-rule:nonzero;"/><path d="M15255.8,49.17l0,121.286l-681.824,0l-0,2038.92l681.824,-0l0,121.286l-1478.38,-0l-0,-121.286l678.546,-0l-0,-2038.92l-678.546,0l-0,-121.286l1478.38,0Z" style="fill-rule:nonzero;"/><path d="M16612.9,0c170.456,0 327.8,42.068 472.032,126.203c144.232,84.135 258.415,198.319 342.551,342.551c84.135,144.232 126.203,301.576 126.203,472.032l-0,498.256c-0,170.457 -42.068,327.801 -126.203,472.033c-84.136,144.232 -198.319,258.415 -342.551,342.551c-144.232,84.135 -301.576,126.203 -472.032,126.203c-170.457,-0 -327.801,-42.068 -472.033,-126.203c-144.232,-84.136 -258.415,-198.319 -342.551,-342.551c-84.135,-144.232 -126.203,-301.576 -126.203,-472.033l0,-498.256c0,-170.456 42.068,-327.8 126.203,-472.032c84.136,-144.232 198.319,-258.416 342.551,-342.551c144.232,-84.135 301.576,-126.203 472.033,-126.203Zm-819.501,1439.04c0,148.603 36.605,285.733 109.813,411.39c73.209,125.656 172.642,225.089 298.298,298.298c125.657,73.208 262.787,109.813 411.39,109.813c148.602,-0 285.732,-36.605 411.389,-109.813c125.656,-73.209 225.089,-172.642 298.298,-298.298c73.208,-125.657 109.813,-262.787 109.813,-411.39l-0,-498.256c-0,-148.602 -36.605,-285.732 -109.813,-411.389c-73.209,-125.657 -172.642,-225.089 -298.298,-298.298c-125.657,-73.209 -262.787,-109.813 -411.389,-109.813c-148.603,0 -285.733,36.604 -411.39,109.813c-125.656,73.209 -225.089,172.641 -298.298,298.298c-73.208,125.657 -109.813,262.787 -109.813,411.389l0,498.256Z" style="fill-rule:nonzero;"/></g></g><defs><linearGradient id="_Linear1" x1="0" y1="0" x2="1" y2="0" gradientUnits="userSpaceOnUse" gradientTransform="matrix(-750.133,-1689.37,1689.37,-750.133,1519.87,2330.66)"><stop offset="0" style="stop-color:#b25ce7;stop-opacity:1"/><stop offset="0.51" style="stop-color:#6d6fe9;stop-opacity:0.89"/><stop offset="1" style="stop-color:#5576ea;stop-opacity:0.85"/></linearGradient></defs></svg>