<?xml version="1.0" encoding="UTF-8" standalone="no"?><!DOCTYPE svg PUBLIC "-//W3C//DTD SVG 1.1//EN" "http://www.w3.org/Graphics/SVG/1.1/DTD/svg11.dtd"><svg width="100%" height="100%" viewBox="0 0 17566 2392" version="1.1" xmlns="http://www.w3.org/2000/svg" xmlns:xlink="http://www.w3.org/1999/xlink" xml:space="preserve" xmlns:serif="http://www.serif.com/" style="fill-rule:evenodd;clip-rule:evenodd;stroke-linejoin:round;stroke-miterlimit:2;"><g id="Logo"><g id="Aethor-Icon" serif:id="Aethor Icon"><path d="M196.017,2215.26l1770.12,0l-258.1,-560.173c-327.479,-274.049 -844.775,-247.494 -926.292,240.577c-52.365,313.527 -585.728,319.596 -585.728,319.596Z" style="fill:url(#_Linear1);"/><path d="M1081.08,5.893l1075.18,2330.66l-2150.37,0l1075.18,-2330.66Zm-0,288.464l-885.06,1920.91l1770.12,0l-885.06,-1920.91Z" style="fill:#fff;"/><path d="M1084.86,4.147l1075.18,2330.66l-3.784,5.912l-2150.37,-0l-3.784,-5.912l1075.18,-2330.66l7.567,0Zm-3.783,1.746l-1075.18,2330.66l2150.37,0l-1075.18,-2330.66Zm-0,288.464l885.06,1920.91l-1770.12,0l885.06,-1920.91Zm-0,9.957l-878.553,1906.79c116.463,-0 1757.11,-0 1757.11,-0l-878.553,-1906.79Z" style="fill:#fff;"/></g><g id="Letters"><path d="M2392.28,55.063l1606.22,-0l-0,121.286l-1484.93,-0l0,924.396l1291.53,-0l-0,121.286l-1291.53,-0l0,993.234l1484.93,0l-0,121.286l-1606.22,0l0,-2281.49Z" style="fill:#fff;fill-rule:nonzero;"/><path d="M2392.28,50.896l1606.22,-0l4.167,4.167l-0,121.286l-4.167,4.166c-0,0 -1480.77,0 -1480.77,0l0,916.063l1287.37,0l4.166,4.167l0,121.286l-4.166,4.167l-1287.37,-0l0,984.901l1480.77,-0l4.167,4.166l-0,121.286l-4.167,4.167l-1606.22,-0l-4.166,-4.167l-0,-2281.49l4.166,-4.167Zm0,4.167l0,2281.49l1606.22,0l-0,-121.286l-1484.93,0l0,-993.234l1291.53,-0l-0,-121.286l-1291.53,-0l0,-924.396l1484.93,-0l-0,-121.286l-1606.22,-0Z" style="fill:#fff;"/><path d="M6198.04,55.063l-0,121.286l-862.115,-0l0,2160.2l-118.008,0l0,-2160.2l-862.114,-0l-0,-121.286l1842.24,-0Z" style="fill:#fff;fill-rule:nonzero;"/><path d="M6202.2,55.063l0,121.286l-4.166,4.166l-857.948,0l-0,2156.04l-4.167,4.167l-118.008,-0l-4.166,-4.167l-0,-2156.04l-857.948,0l-4.167,-4.166l0,-121.286l4.167,-4.167l1842.24,-0l4.166,4.167Zm-4.166,-0l-1842.24,-0l-0,121.286l862.114,-0l0,2160.2l118.008,0l0,-2160.2l862.115,-0l-0,-121.286Z" style="fill:#fff;"/><path d="M6496.34,2336.55l-0,-2281.49l121.286,-0l-0,1078.46l1514.44,-0l0,-1078.46l121.286,-0l0,2281.49l-121.286,0l0,-1081.74l-1514.44,-0l-0,1081.74l-121.286,0Z" style="fill:#fff;fill-rule:nonzero;"/><path d="M6492.17,2336.55l0,-2281.49l4.167,-4.167l121.286,-0l4.166,4.167l0,1074.3c0,0 1506.1,0 1506.1,0l-0,-1074.3l4.166,-4.167l121.286,-0l4.167,4.167l-0,2281.49l-4.167,4.167l-121.286,-0l-4.166,-4.167l-0,-1077.57l-1506.1,-0l0,1077.57l-4.166,4.167l-121.286,-0l-4.167,-4.167Zm4.167,0l121.286,0l-0,-1081.74l1514.44,-0l0,1081.74l121.286,0l0,-2281.49l-121.286,-0l0,1078.46l-1514.44,-0l-0,-1078.46l-121.286,-0l-0,2281.49Z" style="fill:#fff;"/><path d="M9472.76,5.893c170.456,-0 327.8,42.067 472.032,126.203c144.232,84.135 258.416,198.319 342.551,342.551c84.135,144.232 126.203,301.576 126.203,472.032l0,498.256c0,170.456 -42.068,327.8 -126.203,472.032c-84.135,144.232 -198.319,258.416 -342.551,342.551c-144.232,84.136 -301.576,126.203 -472.032,126.203c-170.456,0 -327.8,-42.067 -472.032,-126.203c-144.233,-84.135 -258.416,-198.319 -342.552,-342.551c-84.135,-144.232 -126.203,-301.576 -126.203,-472.032l0,-498.256c0,-170.456 42.068,-327.8 126.203,-472.032c84.136,-144.232 198.319,-258.416 342.552,-342.551c144.232,-84.136 301.576,-126.203 472.032,-126.203Zm-819.501,1439.04c0,148.603 36.605,285.732 109.813,411.389c73.209,125.657 172.642,225.09 298.299,298.298c125.656,73.209 262.786,109.813 411.389,109.813c148.602,0 285.732,-36.604 411.389,-109.813c125.657,-73.208 225.089,-172.641 298.298,-298.298c73.209,-125.657 109.813,-262.786 109.813,-411.389l-0,-498.256c-0,-148.603 -36.604,-285.733 -109.813,-411.389c-73.209,-125.657 -172.641,-225.09 -298.298,-298.298c-125.657,-73.209 -262.787,-109.813 -411.389,-109.813c-148.603,-0 -285.733,36.604 -411.389,109.813c-125.657,73.208 -225.09,172.641 -298.299,298.298c-73.208,125.656 -109.813,262.786 -109.813,411.389l0,498.256Z" style="fill:#fff;fill-rule:nonzero;"/><path d="M9472.76,1.726c171.214,-0 329.257,42.261 474.131,126.771c144.864,84.503 259.547,199.187 344.051,344.05c84.51,144.874 126.771,302.917 126.771,474.132l-0,498.256c-0,171.215 -42.261,329.258 -126.771,474.132c-84.504,144.863 -199.187,259.547 -344.051,344.05c-144.874,84.51 -302.917,126.771 -474.131,126.771c-171.215,0 -329.258,-42.261 -474.132,-126.771c-144.863,-84.503 -259.547,-199.187 -344.051,-344.05c-84.51,-144.874 -126.77,-302.917 -126.77,-474.132l-0,-498.256c-0,-171.215 42.26,-329.258 126.77,-474.132c84.504,-144.863 199.188,-259.547 344.051,-344.05c144.874,-84.51 302.917,-126.771 474.132,-126.771Zm-0,4.167c-170.456,-0 -327.8,42.067 -472.032,126.203c-144.233,84.135 -258.416,198.319 -342.552,342.551c-84.135,144.232 -126.203,301.576 -126.203,472.032l0,498.256c0,170.456 42.068,327.8 126.203,472.032c84.136,144.232 198.319,258.416 342.552,342.551c144.232,84.136 301.576,126.203 472.032,126.203c170.456,0 327.8,-42.067 472.032,-126.203c144.232,-84.135 258.416,-198.319 342.551,-342.551c84.135,-144.232 126.203,-301.576 126.203,-472.032l0,-498.256c0,-170.456 -42.068,-327.8 -126.203,-472.032c-84.135,-144.232 -198.319,-258.416 -342.551,-342.551c-144.232,-84.136 -301.576,-126.203 -472.032,-126.203Zm-819.501,1439.04l0,-498.256c0,-148.603 36.605,-285.733 109.813,-411.389c73.209,-125.657 172.642,-225.09 298.299,-298.298c125.656,-73.209 262.786,-109.813 411.389,-109.813c148.602,-0 285.732,36.604 411.389,109.813c125.657,73.208 225.089,172.641 298.298,298.298c73.209,125.656 109.813,262.786 109.813,411.389l-0,498.256c-0,148.603 -36.604,285.732 -109.813,411.389c-73.209,125.657 -172.641,225.09 -298.298,298.298c-125.657,73.209 -262.787,109.813 -411.389,109.813c-148.603,0 -285.733,-36.604 -411.389,-109.813c-125.657,-73.208 -225.09,-172.641 -298.299,-298.298c-73.208,-125.657 -109.813,-262.786 -109.813,-411.389Zm4.167,0c0,147.844 36.412,284.276 109.247,409.292c72.84,125.023 171.771,223.955 296.795,296.795c125.016,72.835 261.447,109.247 409.292,109.247c147.844,-0 284.276,-36.412 409.291,-109.247c125.024,-72.84 223.956,-171.772 296.796,-296.795c72.835,-125.016 109.246,-261.448 109.246,-409.292l0,-498.256c0,-147.845 -36.411,-284.276 -109.246,-409.292c-72.84,-125.023 -171.772,-223.955 -296.796,-296.795c-125.015,-72.835 -261.447,-109.247 -409.291,-109.247c-147.845,0 -284.276,36.412 -409.292,109.247c-125.024,72.84 -223.955,171.772 -296.795,296.795c-72.835,125.016 -109.247,261.447 -109.247,409.292l0,498.256Z" style="fill:#fff;"/><path d="M12065.7,130.457c131.12,61.189 234.377,151.88 309.771,272.074c75.394,120.193 113.091,253.498 113.091,399.916c-0,170.456 -51.902,322.883 -155.705,457.281c-103.804,134.398 -236.563,223.45 -398.277,267.157l580.206,809.666l-144.232,0l-560.539,-786.72l-104.896,3.278l-822.778,0l0,783.442l-121.286,0l0,-2281.49l868.67,-0c96.155,-0 178.651,6.009 247.489,18.029c68.839,12.019 131.667,31.141 188.486,57.365Zm-327.801,1301.37c113.638,0 218.534,-28.409 314.689,-85.228c96.154,-56.819 172.641,-133.305 229.46,-229.46c56.818,-96.155 85.228,-201.051 85.228,-314.688c-0,-126.75 -33.327,-241.48 -99.979,-344.19c-66.653,-102.711 -158.983,-179.198 -276.991,-229.46c-85.229,-34.966 -205.422,-52.448 -360.581,-52.448l-747.384,-0l0,1255.47l855.558,0Z" style="fill:#fff;fill-rule:nonzero;"/><path d="M12067.4,126.681c131.87,61.539 235.713,152.755 311.538,273.636c75.812,120.859 113.728,254.901 113.728,402.13c0,171.405 -52.192,324.681 -156.574,459.828c-103.138,133.536 -234.707,222.549 -394.703,267.046l576.722,804.803l-3.387,6.594l-144.232,-0l-3.394,-1.749l-559.244,-784.904l-102.666,3.209l-0.131,0.002l-818.611,-0l-0,779.275l-4.167,4.167l-121.286,-0l-4.167,-4.167l0,-2281.49l4.167,-4.167l868.67,-0c96.434,-0 179.169,6.037 248.206,18.091c69.215,12.085 132.385,31.319 189.531,57.694Zm-1.762,3.776c-56.819,-26.224 -119.647,-45.346 -188.486,-57.365c-68.838,-12.02 -151.334,-18.029 -247.489,-18.029l-868.67,-0l0,2281.49l121.286,0l0,-783.442l822.778,0l104.896,-3.278l560.539,786.72l144.232,0l-580.206,-809.666c161.714,-43.707 294.473,-132.759 398.277,-267.157c103.803,-134.398 155.705,-286.825 155.705,-457.281c-0,-146.418 -37.697,-279.723 -113.091,-399.916c-75.394,-120.194 -178.651,-210.885 -309.771,-272.074Zm-327.801,1301.37l-855.558,0l0,-1255.47l747.384,-0c155.159,-0 275.352,17.482 360.581,52.448c118.008,50.262 210.338,126.749 276.991,229.46c66.652,102.71 99.979,217.44 99.979,344.19c-0,113.637 -28.41,218.533 -85.228,314.688c-56.819,96.155 -133.306,172.641 -229.46,229.46c-96.155,56.819 -201.051,85.228 -314.689,85.228Zm0,-4.167c112.872,0 217.062,-28.212 312.569,-84.648c95.54,-56.456 171.537,-132.453 227.992,-227.993c56.436,-95.506 84.649,-199.697 84.649,-312.568c-0,-125.913 -33.095,-239.889 -99.308,-341.922c-66.197,-102.009 -157.905,-177.961 -275.102,-227.884c-84.85,-34.804 -204.516,-52.126 -358.974,-52.126l-743.217,0l-0,1247.14l851.391,0Z" style="fill:#fff;"/><path d="M12780.3,2087.42c-0,-80.857 28.955,-150.241 86.867,-208.153c57.911,-57.911 128.388,-86.867 211.431,-86.867c83.043,0 153.52,28.956 211.431,86.867c57.911,57.912 86.867,127.296 86.867,208.153c-0,80.858 -28.956,150.788 -86.867,209.792c-57.911,59.004 -128.388,88.506 -211.431,88.506c-80.857,0 -150.788,-29.502 -209.792,-88.506c-59.004,-59.004 -88.506,-128.934 -88.506,-209.792Z" style="fill:#fff;fill-rule:nonzero;"/><path d="M12776.1,2087.42c0,-82 29.357,-152.369 88.088,-211.099c58.719,-58.719 130.176,-88.088 214.377,-88.088c84.201,0 155.658,29.369 214.377,88.088c58.73,58.73 88.088,129.099 88.088,211.099c-0,81.98 -29.345,152.888 -88.06,212.711c-58.727,59.834 -130.194,89.754 -214.405,89.754c-81.99,0 -152.908,-29.896 -212.738,-89.726c-59.831,-59.831 -89.727,-130.749 -89.727,-212.739Zm4.167,0c-0,80.858 29.502,150.788 88.506,209.792c59.004,59.004 128.935,88.506 209.792,88.506c83.043,0 153.52,-29.502 211.431,-88.506c57.911,-59.004 86.867,-128.934 86.867,-209.792c-0,-80.857 -28.956,-150.241 -86.867,-208.153c-57.911,-57.911 -128.388,-86.867 -211.431,-86.867c-83.043,0 -153.52,28.956 -211.431,86.867c-57.912,57.912 -86.867,127.296 -86.867,208.153Z" style="fill:#fff;"/><path d="M15261.7,55.063l-0,121.286l-681.825,-0l0,2038.92l681.825,0l-0,121.286l-1478.38,0l0,-121.286l678.546,0l0,-2038.92l-678.546,-0l0,-121.286l1478.38,-0Z" style="fill:#fff;fill-rule:nonzero;"/><path d="M15265.9,55.063l0,121.286l-4.166,4.166c-0,0 -677.658,0 -677.658,0c0,0 0,2030.58 -0,2030.58l677.658,-0l4.166,4.166l0,121.286l-4.166,4.167l-1478.38,-0l-4.167,-4.167l0,-121.286l4.167,-4.166c0,-0 617.618,-0 674.38,-0l-0,-2030.58l-674.38,0l-4.167,-4.166l0,-121.286l4.167,-4.167l1478.38,-0l4.166,4.167Zm-4.166,-0l-1478.38,-0l0,121.286l678.546,-0l0,2038.92l-678.546,0l0,121.286l1478.38,0l-0,-121.286l-681.825,0l0,-2038.92l681.825,-0l-0,-121.286Z" style="fill:#fff;"/><path d="M16618.8,5.893c170.456,-0 327.8,42.067 472.032,126.203c144.232,84.135 258.416,198.319 342.551,342.551c84.136,144.232 126.203,301.576 126.203,472.032l0,498.256c0,170.456 -42.067,327.8 -126.203,472.032c-84.135,144.232 -198.319,258.416 -342.551,342.551c-144.232,84.136 -301.576,126.203 -472.032,126.203c-170.456,0 -327.8,-42.067 -472.032,-126.203c-144.232,-84.135 -258.416,-198.319 -342.551,-342.551c-84.136,-144.232 -126.203,-301.576 -126.203,-472.032l-0,-498.256c-0,-170.456 42.067,-327.8 126.203,-472.032c84.135,-144.232 198.319,-258.416 342.551,-342.551c144.232,-84.136 301.576,-126.203 472.032,-126.203Zm-819.5,1439.04c-0,148.603 36.604,285.732 109.813,411.389c73.209,125.657 172.641,225.09 298.298,298.298c125.657,73.209 262.786,109.813 411.389,109.813c148.603,0 285.732,-36.604 411.389,-109.813c125.657,-73.208 225.09,-172.641 298.298,-298.298c73.209,-125.657 109.813,-262.786 109.813,-411.389l0,-498.256c0,-148.603 -36.604,-285.733 -109.813,-411.389c-73.208,-125.657 -172.641,-225.09 -298.298,-298.298c-125.657,-73.209 -262.786,-109.813 -411.389,-109.813c-148.603,-0 -285.732,36.604 -411.389,109.813c-125.657,73.208 -225.089,172.641 -298.298,298.298c-73.209,125.656 -109.813,262.786 -109.813,411.389l-0,498.256Z" style="fill:#fff;fill-rule:nonzero;"/><path d="M16618.8,1.726c171.215,-0 329.258,42.261 474.132,126.771c144.863,84.503 259.547,199.187 344.05,344.05c84.51,144.874 126.771,302.917 126.771,474.132l0,498.256c0,171.215 -42.261,329.258 -126.771,474.132c-84.503,144.863 -199.187,259.547 -344.05,344.05c-144.874,84.51 -302.917,126.771 -474.132,126.771c-171.215,0 -329.258,-42.261 -474.132,-126.771c-144.863,-84.503 -259.547,-199.187 -344.05,-344.05c-84.51,-144.874 -126.771,-302.917 -126.771,-474.132l0,-498.256c0,-171.215 42.261,-329.258 126.771,-474.132c84.503,-144.863 199.187,-259.547 344.05,-344.05c144.874,-84.51 302.917,-126.771 474.132,-126.771Zm0,4.167c-170.456,-0 -327.8,42.067 -472.032,126.203c-144.232,84.135 -258.416,198.319 -342.551,342.551c-84.136,144.232 -126.203,301.576 -126.203,472.032l-0,498.256c-0,170.456 42.067,327.8 126.203,472.032c84.135,144.232 198.319,258.416 342.551,342.551c144.232,84.136 301.576,126.203 472.032,126.203c170.456,0 327.8,-42.067 472.032,-126.203c144.232,-84.135 258.416,-198.319 342.551,-342.551c84.136,-144.232 126.203,-301.576 126.203,-472.032l0,-498.256c0,-170.456 -42.067,-327.8 -126.203,-472.032c-84.135,-144.232 -198.319,-258.416 -342.551,-342.551c-144.232,-84.136 -301.576,-126.203 -472.032,-126.203Zm-819.5,1439.04l-0,-498.256c-0,-148.603 36.604,-285.733 109.813,-411.389c73.209,-125.657 172.641,-225.09 298.298,-298.298c125.657,-73.209 262.786,-109.813 411.389,-109.813c148.603,-0 285.732,36.604 411.389,109.813c125.657,73.208 225.09,172.641 298.298,298.298c73.209,125.656 109.813,262.786 109.813,411.389l0,498.256c0,148.603 -36.604,285.732 -109.813,411.389c-73.208,125.657 -172.641,225.09 -298.298,298.298c-125.657,73.209 -262.786,109.813 -411.389,109.813c-148.603,0 -285.732,-36.604 -411.389,-109.813c-125.657,-73.208 -225.089,-172.641 -298.298,-298.298c-73.209,-125.657 -109.813,-262.786 -109.813,-411.389Zm4.166,0c0,147.844 36.412,284.276 109.247,409.292c72.84,125.023 171.772,223.955 296.795,296.795c125.016,72.835 261.448,109.247 409.292,109.247c147.845,-0 284.276,-36.412 409.292,-109.247c125.023,-72.84 223.955,-171.772 296.795,-296.795c72.835,-125.016 109.247,-261.448 109.247,-409.292l-0,-498.256c-0,-147.845 -36.412,-284.276 -109.247,-409.292c-72.84,-125.023 -171.772,-223.955 -296.795,-296.795c-125.016,-72.835 -261.447,-109.247 -409.292,-109.247c-147.844,0 -284.276,36.412 -409.292,109.247c-125.023,72.84 -223.955,171.772 -296.795,296.795c-72.835,125.016 -109.247,261.447 -109.247,409.292l0,498.256Z" style="fill:#fff;"/></g></g><defs><linearGradient id="_Linear1" x1="0" y1="0" x2="1" y2="0" gradientUnits="userSpaceOnUse" gradientTransform="matrix(-750.133,-1689.37,1689.37,-750.133,1525.76,2336.55)"><stop offset="0" style="stop-color:#b25ce7;stop-opacity:1"/><stop offset="0.51" style="stop-color:#6d6fe9;stop-opacity:0.89"/><stop offset="1" style="stop-color:#5576ea;stop-opacity:0.85"/></linearGradient></defs></svg>